<?xml version="1.0" standalone="no"?>
<!DOCTYPE svg PUBLIC "-//W3C//DTD SVG 20010904//EN"
 "http://www.w3.org/TR/2001/REC-SVG-20010904/DTD/svg10.dtd">
<svg version="1.0" xmlns="http://www.w3.org/2000/svg"
 width="16.000000pt" height="16.000000pt" viewBox="0 0 16.000000 16.000000"
 preserveAspectRatio="xMidYMid meet">
<metadata>
Created by potrace 1.11, written by Peter Selinger 2001-2013
</metadata>
<g transform="translate(0.000000,16.000000) scale(0.001600,-0.001600)"
fill="#000000" stroke="none">
<path d="M4355 9070 c-196 -31 -364 -185 -498 -456 -170 -342 -267 -795 -308
-1433 -15 -243 -6 -959 16 -1216 122 -1438 474 -2815 977 -3820 112 -224 157
-303 273 -480 213 -327 444 -561 649 -660 392 -188 717 36 882 608 19 65 34
122 34 127 0 5 -26 -3 -57 -18 -83 -38 -222 -43 -325 -12 -218 65 -444 269
-665 600 -846 1266 -1298 3854 -932 5347 87 358 204 602 364 759 92 91 193
144 289 151 36 3 66 8 66 10 0 9 -126 165 -177 220 -191 207 -398 303 -588
273z"/>
<path d="M5700 8516 c0 -2 30 -21 68 -42 634 -353 1222 -1087 1565 -1955 86
-217 229 -671 216 -683 -2 -2 -68 -36 -146 -75 -310 -154 -670 -295 -1068
-416 -104 -31 -193 -60 -196 -64 -7 -7 115 -678 125 -688 3 -4 68 10 144 31
357 96 814 249 1130 376 80 33 147 58 148 57 1 -1 8 -87 15 -191 21 -328 4
-733 -45 -1061 -99 -657 -343 -1251 -693 -1687 -30 -38 -51 -68 -47 -68 10 0
162 101 248 165 1025 757 1560 1997 1410 3265 l-5 45 72 50 c422 291 645 618
601 878 -40 228 -232 399 -580 516 -101 34 -252 74 -258 69 -2 -2 8 -33 23
-68 31 -78 40 -181 23 -263 -13 -65 -88 -223 -119 -251 -18 -17 -19 -17 -26 6
-12 39 -134 277 -192 378 -166 284 -370 536 -632 785 -444 419 -1028 729
-1621 860 -63 14 -125 28 -137 30 -13 3 -23 3 -23 1z"/>
<path d="M3145 7991 c-530 -351 -974 -861 -1237 -1420 -190 -406 -287 -765
-336 -1239 l-7 -73 -71 49 c-147 104 -244 246 -252 369 -3 34 -7 63 -10 63
-11 0 -188 -139 -251 -196 -410 -375 -348 -779 161 -1040 120 -61 265 -117
398 -154 47 -13 89 -27 93 -30 4 -4 25 -74 47 -156 279 -1065 1020 -1921 2041
-2357 191 -82 546 -189 699 -212 45 -6 45 -6 -45 48 -774 463 -1389 1334
-1705 2413 -17 56 -30 106 -30 110 0 5 218 9 484 9 266 0 488 3 492 7 4 4 2
31 -4 60 -50 234 -122 597 -122 615 0 48 -19 53 -198 53 -237 0 -673 33 -777
59 l-30 7 -12 130 c-85 950 100 1887 510 2569 66 111 132 205 214 308 30 38
53 70 51 71 -1 2 -48 -26 -103 -63z"/>
</g>
</svg>
