<?xml version="1.0" standalone="no"?>
<!DOCTYPE svg PUBLIC "-//W3C//DTD SVG 20010904//EN"
 "http://www.w3.org/TR/2001/REC-SVG-20010904/DTD/svg10.dtd">
<svg version="1.0" xmlns="http://www.w3.org/2000/svg"
 width="300.000000pt" height="300.000000pt" viewBox="0 0 300.000000 300.000000"
 preserveAspectRatio="xMidYMid meet">
<metadata>
Created by potrace 1.14, written by Peter Selinger 2001-2017
</metadata>
<g transform="translate(0.000000,300.000000) scale(0.100000,-0.100000)"
fill="#000000" stroke="none">
<path d="M1190 2676 c-168 -46 -360 -296 -444 -578 -40 -135 -49 -196 -49
-328 -1 -147 14 -196 91 -306 l48 -68 -37 -118 c-76 -235 -129 -491 -129 -619
0 -177 89 -279 234 -267 86 7 172 55 254 143 113 121 172 265 172 426 0 67 -4
84 -35 145 -19 38 -97 151 -175 251 -77 101 -140 188 -140 195 0 23 132 263
194 352 237 339 518 532 815 562 289 28 375 -216 245 -695 -83 -307 -229 -515
-408 -584 -106 -40 -237 -14 -291 58 -38 50 -58 145 -31 145 19 0 56 47 56 71
0 25 -35 59 -61 59 -11 0 -34 -13 -50 -29 -27 -28 -29 -34 -29 -108 0 -179
113 -283 306 -283 248 0 519 210 665 515 67 140 89 226 96 370 8 190 -31 313
-134 425 -116 126 -278 157 -508 99 -185 -47 -341 -145 -525 -329 -137 -137
-217 -243 -326 -435 -80 -141 -80 -140 -126 -40 -20 43 -23 66 -23 165 1 321
183 677 378 740 40 13 53 22 55 40 4 22 -12 40 -33 39 -5 0 -30 -6 -55 -13z
m-175 -1513 c66 -86 130 -177 142 -202 87 -179 -87 -500 -272 -501 -137 0
-170 140 -107 445 32 155 102 415 111 415 3 0 60 -71 126 -157z"/>
</g>
</svg>
